 <svg width="21" height="38" viewBox="0 0 21 38" fill="none" xmlns="http://www.w3.org/2000/svg">
                <path d="M13.0051 12.296C13.2735 11.8885 13.5122 11.4619 13.7196 11.0195C12.2603 10.6763 10.5852 10.4993 8.69007 10.4993C6.54237 10.4993 4.283 10.7148 2.02808 11.0683C2.8586 11.0298 3.68406 11.0105 4.49365 11.0105C8.25926 11.0105 11.1055 11.4454 13.0051 12.296Z" fill="#B5252F"/>
                <path d="M12.6083 5.15562C11.3129 4.94977 10.0031 4.85024 8.69172 4.858C6.54402 4.858 4.28465 5.07352 2.02972 5.42567C2.86025 5.3891 3.6857 5.3705 4.4953 5.3705C8.96391 5.3705 12.1579 5.97538 13.9845 7.17294C13.9959 7.18063 14.0054 7.18833 14.0169 7.19539C13.7504 6.47955 13.2891 5.80026 12.6083 5.15562Z" fill="#B5252F"/>
                <path d="M20.9921 19.4051C20.9858 19.2402 20.9636 19.0844 20.9509 18.9253C19.0525 22.2099 15.3442 25.7523 9.82599 29.5526C7.93399 30.8547 5.83049 32.1846 3.5155 33.5423V37.5C15.1708 30.5552 21.2097 24.3114 20.9921 19.4051Z" fill="#B5252F"/>
                <path d="M13.2499 21.0209C11.2682 22.7399 8.87836 24.5145 6.08032 26.3448V30.2832C16.0524 23.9689 21.1954 18.2948 20.9943 13.7624C20.9423 12.568 20.7234 11.4987 20.3541 10.543C19.9817 13.7406 17.6024 17.2447 13.2499 21.0209Z" fill="#B5252F"/>
                <path d="M11.9548 2.81815C14.5212 4.49679 15.7921 6.51795 15.7299 8.82584C15.6328 12.4544 12.227 16.1658 8.02357 19.382V23.2639C10.0924 21.7886 11.874 20.3561 13.3684 18.9663L13.4553 18.8842L13.671 18.6815C17.12 15.4044 18.9181 12.4031 18.9683 9.7726C18.9683 9.64944 18.9683 9.52757 18.9638 9.40634C18.7043 3.49679 14.5644 0.5 6.66199 0.5C4.51239 0.5 2.25302 0.716164 0 1.06831C0.832432 1.03239 1.65915 1.01058 2.46938 1.01058C6.93672 1.01058 10.1288 1.61866 11.9548 2.81815Z" fill="#B5252F"/>
            </svg>