<svg width="236" height="146" viewBox="0 0 236 146" fill="none" xmlns="http://www.w3.org/2000/svg">
<g clip-path="url(#clip0_2872_1553)">
<path d="M56.9504 53.1205C57.752 51.9143 58.4652 50.6514 59.0846 49.3419C54.7252 48.3261 49.7214 47.802 44.0598 47.802C37.6439 47.802 30.8944 48.44 24.1582 49.4862C26.6393 49.3723 29.1052 49.3153 31.5237 49.3153C42.7729 49.3153 51.2756 50.6027 56.9504 53.1205Z" fill="#B5252F"/>
<path d="M55.765 31.9832C51.895 31.3739 47.9821 31.0792 44.0647 31.1022C37.6488 31.1022 30.8993 31.7402 24.1631 32.7826C26.6442 32.6744 29.1101 32.6193 31.5286 32.6193C44.8778 32.6193 54.4193 34.4099 59.8761 37.9549C59.9102 37.9777 59.9386 38.0005 59.9728 38.0214C59.1767 35.9023 57.7987 33.8915 55.765 31.9832Z" fill="#B5252F"/>
<path d="M80.8102 74.1649C80.7912 73.6769 80.7249 73.2155 80.687 72.7446C75.016 82.4677 63.938 92.9541 47.4531 104.204C41.8011 108.058 35.5172 111.995 28.6016 116.014V127.73C63.4199 107.172 81.4603 88.6888 80.8102 74.1649Z" fill="#B5252F"/>
<path d="M57.6816 78.9479C51.7617 84.0367 44.6224 89.29 36.2637 94.7079V106.366C66.0536 87.6748 81.4176 70.8781 80.8168 57.4612C80.6614 53.9256 80.0075 50.7604 78.9043 47.9312C77.7917 57.3966 70.684 67.7697 57.6816 78.9479Z" fill="#B5252F"/>
<path d="M53.8126 25.064C61.4795 30.0332 65.276 36.0163 65.0902 42.8481C64.8002 53.5896 54.6257 64.576 42.0688 74.0965V85.588C48.249 81.2208 53.5713 76.9802 58.0356 72.8661L58.2952 72.6231L58.9397 72.0231C69.243 62.3221 74.6146 53.4377 74.7643 45.6507C74.7643 45.2862 74.7643 44.9254 74.751 44.5665C73.9758 27.0729 61.6084 18.2018 38.0012 18.2018C31.5797 18.2018 24.8302 18.8417 18.0996 19.8841C20.5864 19.7778 23.0561 19.7132 25.4765 19.7132C38.822 19.7132 48.3577 21.5133 53.8126 25.064Z" fill="#B5252F"/>
<path d="M95.9019 60.5108C95.9165 59.8177 95.8478 59.1253 95.6972 58.4487C95.5736 57.9278 95.2842 57.4613 94.8727 57.1195C94.3402 56.7168 93.7294 56.4302 93.0797 56.2784C92.0732 56.0168 91.0515 55.8177 90.0205 55.6821V54.7612H104.257C106.026 54.7612 107.858 54.8062 109.753 54.896C111.523 54.9607 113.27 55.3088 114.93 55.9271C116.44 56.4957 117.764 57.4724 118.755 58.7487C119.755 60.0323 120.255 61.8678 120.254 64.2552C120.254 66.6059 119.724 68.423 118.666 69.7066C117.603 70.9948 116.213 71.9716 114.642 72.5339C112.92 73.1488 111.114 73.4959 109.287 73.5631C107.346 73.6542 105.474 73.6998 103.669 73.6998H101.016V91.2731H95.8981L95.9019 60.5108ZM101.019 71.575H103.55C104.922 71.575 106.265 71.5212 107.579 71.4136C108.788 71.3322 109.973 71.0384 111.08 70.5459C112.099 70.072 112.956 69.3079 113.544 68.349C114.176 67.354 114.492 65.9888 114.492 64.2533C114.492 61.5785 113.734 59.6797 112.217 58.5569C110.701 57.4341 108.633 56.8733 106.012 56.8746C105.088 56.8614 104.165 56.9065 103.247 57.0094C102.579 57.1005 102.079 57.2733 101.745 57.524C101.405 57.7904 101.183 58.1807 101.128 58.6101C101.038 59.2389 100.999 59.8738 101.01 60.5089L101.019 71.575Z" fill="#4D5858"/>
<path d="M135.574 81.5854C135.564 82.6594 135.436 83.729 135.195 84.7754C134.936 85.9313 134.402 87.0078 133.641 87.9141C132.852 88.8711 131.737 89.6692 130.295 90.3085C128.854 90.9477 126.941 91.2642 124.556 91.2579C121.556 91.2579 119.229 90.7262 117.575 89.6629C115.921 88.5996 115.037 87.0039 114.922 84.876H120.345C120.393 85.3164 120.48 85.7517 120.604 86.1767C120.753 86.6884 120.997 87.1672 121.325 87.5875C121.701 88.0722 122.185 88.4623 122.738 88.7268C123.336 89.0287 124.113 89.1787 125.076 89.1787C126.465 89.1787 127.523 88.8863 128.248 88.3015C128.964 87.7358 129.52 86.9939 129.863 86.1482C130.21 85.2924 130.415 84.3854 130.47 83.4633C130.527 82.5215 130.556 81.6785 130.557 80.9341V60.9513C130.557 60.0284 130.439 59.3278 130.21 58.8493C129.99 58.3833 129.626 58.001 129.171 57.7594C128.612 57.4854 128.004 57.3229 127.382 57.2809C126.651 57.2087 125.785 57.1201 124.786 57.0151V56.1112L135.574 54.8751V81.5854Z" fill="#4D5858"/>
<path d="M171.215 77.4365C171.215 79.0682 171.148 80.7081 171.012 82.3563C170.902 83.9284 170.418 85.4512 169.6 86.7975C168.79 88.109 167.502 89.1811 165.734 90.0141C163.966 90.847 161.467 91.2641 158.236 91.2654C155.12 91.2654 152.676 90.9021 150.906 90.1755C149.136 89.4489 147.809 88.4647 146.926 87.2229C146.023 85.9366 145.448 84.4482 145.252 82.8879C145.015 81.1519 144.899 79.4014 144.905 77.6491V60.9512C144.905 60.0284 144.79 59.3277 144.558 58.8492C144.334 58.3767 143.959 57.9929 143.491 57.7593C142.92 57.488 142.304 57.3257 141.674 57.2808C140.943 57.2086 140.097 57.12 139.136 57.015V56.1111L149.924 54.8883V77.6491C149.924 78.6049 149.972 79.7486 150.068 81.0803C150.161 82.3891 150.473 83.673 150.991 84.8779C151.527 86.1054 152.385 87.1641 153.474 87.9406C154.612 88.7761 156.218 89.1925 158.292 89.19C160.677 89.19 162.513 88.8444 163.8 88.1533C165.088 87.4621 166.031 86.576 166.628 85.495C167.232 84.3883 167.586 83.1628 167.667 81.9043C167.762 80.5916 167.81 79.315 167.811 78.0745V54.8845H171.223L171.215 77.4365Z" fill="#4D5858"/>
<path d="M197.012 59.1949C196.555 59.0183 196.003 58.8151 195.357 58.5626C194.711 58.31 193.975 58.0803 193.158 57.8505C192.285 57.6106 191.399 57.4173 190.505 57.2714C189.542 57.1133 188.567 57.0346 187.592 57.036C185.537 57.036 183.871 57.5094 182.593 58.4562C181.316 59.4031 180.678 60.6848 180.681 62.3013C180.662 62.9498 180.776 63.5953 181.017 64.1977C181.258 64.8001 181.619 65.3464 182.08 65.8027C183.114 66.8087 184.287 67.6599 185.564 68.33C186.953 69.0895 188.47 69.8186 190.112 70.5174C191.701 71.1915 193.223 72.0108 194.661 72.9649C196.01 73.856 197.189 74.9798 198.145 76.284C199.078 77.5663 199.545 79.1721 199.546 81.1013C199.546 82.9279 199.167 84.4817 198.409 85.7628C197.65 87.0409 196.603 88.1231 195.351 88.9224C193.995 89.7804 192.496 90.387 190.926 90.7129C189.199 91.0868 187.436 91.2721 185.67 91.2655C184.68 91.2655 183.691 91.2218 182.701 91.1345C181.712 91.0471 180.797 90.9421 179.957 90.8193C179.121 90.694 178.395 90.5819 177.787 90.4756C177.364 90.4118 176.945 90.3237 176.532 90.2117V86.585C177.065 86.8318 177.703 87.0843 178.444 87.3445C179.186 87.6046 179.987 87.8553 180.844 88.0812C181.701 88.3072 182.605 88.5027 183.558 88.6603C184.516 88.8178 185.484 88.8965 186.454 88.8958C188.968 88.8958 190.926 88.3426 192.33 87.2362C193.734 86.1299 194.438 84.4571 194.443 82.2177C194.443 80.743 193.987 79.5139 193.073 78.5303C192.08 77.4831 190.935 76.592 189.677 75.8872C188.252 75.0794 186.784 74.3504 185.279 73.7036C183.746 73.0443 182.274 72.2506 180.88 71.332C179.573 70.4798 178.423 69.4091 177.478 68.1667C176.564 66.9578 176.107 65.4223 176.107 63.5602C176.107 60.6816 177.231 58.4784 179.477 56.9505C181.724 55.4226 184.751 54.6587 188.558 54.6587C190.229 54.6469 191.898 54.744 193.556 54.9492C195.022 55.1429 196.174 55.327 197.012 55.5017V59.1949Z" fill="#4D5858"/>
</g>
<defs>
<clipPath id="clip0_2872_1553">
<rect width="236" height="146" fill="white"/>
</clipPath>
</defs>
</svg>
