<svg width="62" height="50" viewBox="0 0 62 50" fill="none" xmlns="http://www.w3.org/2000/svg">
<path d="M43.686 35.8379C42.0995 35.6715 40.5035 35.621 38.91 35.687C38.7115 35.6949 38.5131 35.696 38.3157 35.7097L37.7215 35.7551C37.3257 35.7846 36.931 35.8084 36.5386 35.8685C36.1461 35.9287 35.7515 35.9571 35.3612 36.015L34.1927 36.2147C33.9987 36.2499 33.8036 36.2749 33.6107 36.3203L33.0331 36.4496L32.4566 36.5802C32.2659 36.6256 32.073 36.6619 31.8834 36.7186L30.747 37.0364L30.4643 37.117L30.1839 37.2101L29.6295 37.3962C28.1456 37.8896 26.6984 38.4919 25.2992 39.1985C22.5238 40.59 19.9453 42.36 17.634 44.4602L17.7194 44.5737C20.1887 42.7694 22.8855 41.3159 25.736 40.2529C27.1426 39.7244 28.5846 39.3003 30.0508 38.984L30.5974 38.8705L30.8701 38.8115L31.1462 38.7661L32.247 38.5845C32.43 38.5493 32.6151 38.5357 32.8014 38.513L33.3557 38.4506L33.91 38.3882C34.094 38.3655 34.2803 38.3632 34.4643 38.3496L35.573 38.2826C35.941 38.269 36.3113 38.2724 36.6816 38.2667C37.0519 38.261 37.4189 38.2747 37.7902 38.2871L38.3446 38.3053C38.5286 38.3121 38.7115 38.3325 38.8989 38.345C40.3597 38.4448 41.8117 38.6515 43.2437 38.9636C45.4024 39.4325 47.5076 40.1301 49.5252 41.0451L52.5186 37.9807C49.6767 36.8804 46.708 36.1602 43.686 35.8379Z" fill="#B5252F"/>
<path d="M32.356 24.4583C32.356 27.5272 32.1793 29.4077 28.7044 29.4077C26.1227 29.4077 25.6174 27.5091 25.6174 24.2299V10.8527L18.3208 11.7573V11.7697L10.7336 12.7151V13.2488L18.4159 14.0641L19.4981 14.1772C19.9584 14.2263 20.3843 14.446 20.694 14.7938C21.0036 15.1416 21.1751 15.593 21.1753 16.0611V25.6863C21.249 27.1823 21.4984 28.7134 22.2933 29.9335C23.4494 31.6998 25.5357 32.5581 28.673 32.5581C31.9065 32.5581 34.0118 31.6048 35.1098 29.6452C36.0344 27.9942 36.0344 25.9317 36.0344 24.1123V10.9861H32.356V24.4583Z" fill="#4D5858"/>
<path d="M45.1206 19.185C42.8934 18.0796 41.5289 17.3318 41.5289 15.9696C41.5289 14.6242 42.7923 14.1488 43.9752 14.1488C45.8823 14.1488 47.6907 14.9549 48.2889 15.2207L49.734 15.8642V11.4917L48.9178 11.3258C47.4517 11.0179 45.9576 10.8594 44.4588 10.8527C39.9725 10.8527 37.1845 13.0737 37.1845 16.649C37.1845 20.4037 40.2495 21.9464 42.7208 23.1864C44.9912 24.33 46.3886 25.1103 46.3886 26.6732C46.3886 27.7842 46.0787 29.2597 43.3985 29.2597C41.3938 29.2597 39.4151 28.3841 38.8578 28.115L37.382 27.4087V31.7811L38.171 31.965C38.5978 32.0637 40.8341 32.5581 42.9933 32.5581C47.9222 32.5581 50.985 30.0759 50.985 26.0812C50.9884 22.1023 47.7315 20.4856 45.1206 19.185Z" fill="#4D5858"/>
</svg>
